<svg fill="none" height="314.642654" viewBox="0 0 400 396" width="317.820863" xmlns="http://www.w3.org/2000/svg"><path clip-rule="evenodd" d="m227.616.217546c-2.447.323001-4.61 1.003004-6.257 1.969004-8.79 5.152-17.43 7.223-26.745 6.411-4.727-.412-6.537-1.007-12.627-4.148-7.196-3.712003-7.876-3.923004-13.078-4.070004-8.785-.249-11.044.839004-19.616 9.447004-10.508 10.55095-16.067 12.72195-31.272 12.20995-11.08-.373-11.805-.341-14.695.655-7.0576 2.432-12.0806 7.231-14.5676 13.919-3.557 9.568-10.503 17.168-19.576 21.42-2.527 1.184-3.225 1.383-8.005 2.282-7.448 1.401-13.791 5.4811-17.32 11.1441-2.191 3.515-2.707 5.6909-3.582 15.1079-.983 10.563-1.64 12.882-5.23 18.4375-3.022 4.677-5.263 6.876-12.973 12.728-11.238 8.53-14.01396 16.853-9.802 29.394 4.361 12.987 1.789 26.414-7.08596 36.987-6.618 7.883-6.944 20.246-.725 27.472 9.77096 11.353 12.78696 27.659 7.49696 40.532-3.47696 8.461 1.291 21.737 9.316 25.944 12.424 6.513 20.118 18.239 20.713 31.567.657 14.727 6.18 22.435 18.324 25.576 16.888 4.367 23.699 9.642 29.857 23.121 6.37 13.942 13.1126 17.641 28.8496 15.825 15.26-1.76 25.098 2.549 37.735 16.529 5.156 5.704 17.88 6.526 25.946 1.675 12.022-7.228 24.063-7.612 36.674-1.169 7.532 3.848 11.371 4.778 16.586 4.02 5.95-.866 9.252-3.047 19.377-12.8 7.99-7.697 18.418-10.916 30.277-9.348 12.327 1.63 21.576-3.154 25.578-13.23 2.882-7.255 7.284-13.706 12.238-17.936 4.387-3.746 6.209-4.612 14.988-7.126 15.243-4.364 19.897-9.599 20.581-23.147.805-15.94 7.698-27.647 20.272-34.427 6.574-3.545 10.521-10.85 10.509-19.447l-.006-3.98-1.457-4.264c-4.936-14.446-3.345-25.418 5.364-36.992 8.279-11.002 8.35-21.519.217-31.799-8.018-10.134-10.132-23.321-5.792-36.123 3.158-9.313-1.177-21.495-9.211-25.883-6.947-3.794-12.749-10.181-17.027-18.7434-1.908-3.819-2.37-5.8431-3.046-13.3601-.949-10.535-1.794-12.644-7.65-19.082-2.504-2.754-5.779-4.436-11.843-6.083-1.789-.486-4.385-1.197-5.769-1.581-7.199-1.995-13.813-7.106-18.731-14.476-1.49-2.233-6.756-12.482-6.756-13.149 0-.581-3.258-4.121-5.167-5.615-5.605-4.386-10.835-5.666-18.571-4.545-14.26 2.066-24.993-1.734-35.207-12.46395-7.365-7.738-13.549-10.436004-21.509-9.385004zm-12.936 19.412954c109.063 9.953 183.461 113.5015 158.054 219.9805-21.37 89.558-107.971 148.369-198.708 134.945-96.9546-14.345-164.0036-104.82-150.0876-202.528 10.388-72.9315 65.241-132.4315 137.0536-148.6665 9.237-2.088 17.384-3.213 29.808-4.115 2.824-.205 20.548.08 23.88.384zm-28.571 9.251v2.421l1.35.005c2.65.008 2.595-.269 2.383 11.997-.204 11.84-.082 11.289-2.55 11.526-1.643.158-1.742.334-1.748 3.125l-.004 1.776h6.925 6.925l.182-1.747c.336-3.217.394-3.085-1.36-3.085-2.533 0-2.438.359-2.433-9.189.003-4.563.109-8.46.236-8.66.15-.237 2.216 3.729 5.888 11.301l5.658 11.665h3.488 3.489l.027-1.635c.014-.899.11-7.035.213-13.636.213-13.708.039-12.875 2.731-13.098l1.578-.131v-2.381-2.381h-6.965-6.966v2.416 2.417h1.298c2.7 0 2.769.224 2.47 7.936l-.214 5.52-4.465-9.216-4.464-9.216-6.836-.076-6.836-.076zm-17.711.581c-4.347.819-7.946 1.536-7.999 1.593-.279.303.798 4.816 1.12 4.693 3.389-1.301 3.437-1.209 5.734 11.139 2.137 11.488 2.138 11.074-.04 11.622-1.784.45-1.732.332-1.259 2.859.39 2.077.453 2.197 1.116 2.127 1.764-.186 14.943-2.722 15.156-2.916.132-.12.091-.967-.09-1.883-.569-2.864-.409-2.689-2.364-2.599-2.28.106-2.04.747-4.325-11.525-2.13-11.435-2.134-11.091.152-11.456 1.681-.269 1.698-.307 1.225-2.812-.236-1.249-.45-2.284-.476-2.301-.026-.016-3.604.64-7.95 1.459zm70.589 2.605c-15.334 2.564-18.888 25.3521-5.025 32.2211 3.768 1.867 9.441 2.4289 12.537 1.2399.277-.106.449.1901.588 1.0111.224 1.327.395 1.4469 3.19 2.2319 1.883.53 2.061.538 2.188.104.077-.26.794-2.775 1.595-5.59 1.678-5.9 1.972-6.376 3.639-5.877.612.183 1.252.333 1.423.333.293 0 1.473-3.446 1.47-4.295-.001-.274-2.291-1.043-7.462-2.504-4.104-1.16-7.61-2.161-7.791-2.224-.306-.107-.994 1.778-1.412 3.868-.16.803-.11.85 1.39 1.286 2.146.624 2.369.954 1.941 2.867-.7 3.128-2.297 4.314-5.448 4.044-6.029-.516-8.988-7.369-6.408-14.84 3.806-11.024 14.136-10.728 17.369.498l.471 1.634h2.354 2.353l.184-2.771c.101-1.525.184-4.143.185-5.817l.001-3.045-1.473-.438c-1.826-.542-1.92-.542-2.535.014-.461.417-.613.366-2.012-.679-3.725-2.781-8.794-4.027-13.312-3.272zm-96.801 3.929c-3.597 1.625-6.651 2.997-6.788 3.051-.136.053.351 4.551 1.084 9.994.732 5.444 1.291 9.938 1.243 9.987-.073.072-10.941-12.729-12.469-14.687-.431-.551-.595-.495-7.334 2.506-7.75 3.452-7.212 2.912-5.858 5.869.784 1.713.994 1.83 2.119 1.187 2.212-1.264 2.101-1.417 7.16 9.859 4.648 10.361 4.633 10.292 2.596 11.393l-1.473.796.889 2.013c.489 1.107 1.03 2.067 1.203 2.133.308.119 11.701-4.8409 12.195-5.3089.435-.412-1.562-4.5911-2.086-4.3651-3.499 1.512-2.996 2.064-7.666-8.417-2.503-5.616-3.512-8.152-3.055-7.676.375.391 4.107 4.741 8.293 9.666s7.697 9.053 7.803 9.174c.167.189 4.56-1.638 4.56-1.897 0-.053-.772-5.769-1.715-12.701-.944-6.933-1.679-12.796-1.634-13.029.123-.638 7.94 17.02 7.841 17.712-.055.388-.604.877-1.557 1.387l-1.472.789.86 1.9121c.472 1.052.967 2.0259 1.099 2.1659.175.184 13.994-5.669 14.716-6.233.07-.054-1.596-4.033-1.824-4.354-.039-.054-.774.165-1.635.487-1.482.554-1.595.559-2.133.098-.698-.598-8.85-18.833-8.85-19.795 0-.677 1.151-1.866 1.815-1.875 1.1-.016 1.134-.497.185-2.673-1.141-2.618-.277-2.707-8.112.832zm130.304 11.116c-5.429 4.522-5.189 4.066-3.272 6.202l1.512 1.685 1.723-1.047c2.285-1.387 3.808-1.896 5.674-1.896 1.471 0 3.363.652 3.128 1.078-2.233 4.05-11.163 18.623-11.6 18.929-.561.393-.734.3691-2.005-.2749-.766-.388-1.512-.631-1.659-.54-.334.206-2.373 3.8289-2.232 3.9649.399.384 13.532 8.114 13.787 8.115.177 0 .843-.864 1.48-1.919l1.158-1.919-.627-.485c-.344-.267-.978-.757-1.408-1.088-1.16-.894-1.21-.781 4.654-10.624 6.466-10.855 5.872-10.092 7.073-9.081 1.503 1.264 2.075 2.909 2.257 6.484l.159 3.116 1.706.354c3.122.647 2.747 1.155 4.081-5.521.648-3.244 1.179-5.989 1.179-6.1-.001-.546-2.61-1.715-3.217-1.441-.937.423-15.932-8.542-16.057-9.6-.061-.513-.467-.926-1.465-1.487l-1.381-.776zm-186.5936 22.725c-6.982 5.822-6.509 5.107-4.787 7.238 1.605 1.987 1.515 1.961 2.939.816 1.741-1.398 1.769-1.376 9.139 7.491 7.8396 9.431 7.4236 8.687 5.816 10.388l-1.245 1.319 1.46 1.771c.8036.974 1.5316 1.7805 1.6176 1.7915.087.01 4.525-3.6235 9.863-8.0735l9.706-8.092-.809-2.214c-3.019-8.256-3.66-9.8739-3.952-9.9709-.832-.277-4.347 1.4509-4.175 2.0529 1.197 4.186 1.224 6.477.105 8.895-.652 1.41-3.932 4.912-4.601 4.912-.535 0-14.1116-16.387-14.1116-17.033 0-.29.511-.99 1.137-1.555 1.395-1.26 1.411-1.042-.213-3.051-1.722-2.13-.99-2.438-7.889 3.315zm104.7606-4.809c-88.726 7.843-146.3386 93.5505-118.2596 175.9275 16.809 49.315 61.8536 84.48 114.3256 89.248 76.133 6.92 141.189-47.173 146.641-121.929 5.199-71.278-46.457-133.6254-118.257-142.7354-3.396-.431-21.156-.8021-24.45-.5111zm18.494.965c61.036 4.653 111.62 50.5285 121.646 110.3195 13.62 81.226-47.944 153.479-130.788 153.496-96.493.021-161.1396-97.221-122.4566-184.201 22.6396-50.9075 76.9746-83.7785 131.5986-79.6145zm-20.057 2.844c-75.046 6.532-128.7186 72.9315-118.9696 147.1765 9.065 69.041 72.1296 118.218 142.4836 111.107 76.077-7.69 128.164-76.088 115.184-151.255-9.204-53.299-52.524-96.4514-105.862-105.4514-9.538-1.61-24.313-2.3191-32.836-1.5771zm16.773 2.5631c76.506 4.166 131.34 72.4444 118.943 148.1044-10.904 66.551-73.549 112.653-141.544 104.166-71.703-8.95-120.9466-74.625-109.2886-145.754 10.514-64.148 67.3276-110.0314 131.8896-106.5164zm100.249 1.5729c-10.514 2.828-16.012 14.739-11.203 24.27 6.829 13.5375 24.366 14.4755 31.736 1.6981 7.382-12.797-6.101-29.8491-20.533-25.9681zm9.718 7.244c6.567 1.658 7.331 9.14 1.555 15.221-6.204 6.5315-12.991 6.8765-16.23.825-3.415-6.379 7.161-17.943 14.675-16.046zm-247.6926 8.1011c-5.957 7.1339-5.583 6.2389-3.372 8.0869l1.76 1.47 1.072-1.161c1.753-1.9 1.068-2.286 11.612 6.5525 8.016 6.719 7.821 6.466 6.421 8.3l-.999 1.309 1.879 1.594c1.525 1.294 1.943 1.523 2.22 1.218.187-.207 2.556-3.054 5.264-6.328l4.924-5.951-.969-.826c-.534-.454-1.398-1.158-1.922-1.566l-.952-.741-.991 1.192c-1.51 1.819-1.472 1.839-9.627-4.9455-10.47-8.709-9.854-7.9639-8.318-10.0529l.908-1.235-1.121-.9641c-.617-.531-1.467-1.22-1.89-1.531l-.768-.567zm132.0036 10.5749c-7.14 11.7385-15.941 19.0675-27.851 23.1925-6.784 2.35-5.246 2.257-34.089 2.056l-25.586-.179-.74.649c-.407.358-2.02 2.185-3.585 4.062-1.565 1.876-3.119 3.655-3.454 3.953-1.05.935-.737 1.374 1.892 2.655 8.344 4.067 15.026 12.688 16.803 21.679.438 2.215.462 5.299.29 37.1-.11 20.18-.08 36.158.071 38.209 1.082 14.714 7.721 27.396 18.871 36.049 1.086.843 18.974 9.697 27.513 13.618 10.946 5.027 20.288 11.267 27.94 18.663 3.759 3.633 3.151 3.542 5.941.887 7.263-6.909 12.454-10.093 33.314-20.427 11.394-5.646 18.306-9.239 20.042-10.42 8.869-6.032 16.445-17.586 18.525-28.249.385-1.973.462-7.614.585-42.502.121-34.561.203-40.574.58-42.69 1.675-9.41 7.939-17.689 16.746-22.137 1.538-.778 2.977-1.413 3.198-1.413 1.299 0 .253-1.46-3.826-5.338l-4.227-4.018-24.984-.091c-28.068-.103-27.013-.029-34.186-2.379-11.545-3.782-23.843-13.881-27.922-22.9295-.197-.437-.58-.782-.869-.782-.284 0-.73.352-.992.782zm140.051 3.6595c-1.017.563-1.902 1.074-1.968 1.135-.065.061.173.734.529 1.495.712 1.52.632 2.252-.313 2.842-1.939 1.21-17.695 9.721-18.261 9.863-.77.193-1.614-.542-2.175-1.895-.187-.453-.449-.823-.581-.823-.19 0-3.784 1.852-4.198 2.163-.085.064 5.7 10.811 6.466 12.013.209.328 3.141-.95 4.278-1.864.069-.055-.155-.677-.497-1.381-.816-1.68-.785-2.252.159-2.903 1.154-.797 14.594-8.103 14.69-7.986.045.055-2.39 3.682-5.412 8.06s-6.335 9.19-7.364 10.694l-1.87 2.733 1.649 3.016c.906 1.659 1.74 3.02 1.852 3.024s5.357-2.822 11.656-6.28c14.144-7.764 13.323-7.49 14.433-4.81.196.474.506.862.687.862.423 0 4.15-1.972 4.15-2.196 0-.311-6.319-11.74-6.581-11.902-.193-.12-3.672 1.557-4.157 2.004-.043.04.238.752.623 1.583.468 1.011.619 1.664.456 1.97-.234.436-10.76 6.418-10.946 6.22-.049-.052 2.465-3.798 5.586-8.324 3.674-5.328 5.628-8.406 5.543-8.733-.197-.751-6.185-11.61-6.401-11.606-.102.002-1.017.464-2.033 1.026zm-286.9196 5.23-2.737 5.692 1.616.81c2.699 1.354 2.788 1.356 3.438.082.313-.615.767-1.193 1.009-1.286.355-.136 13.231 10.611 13.231 11.044 0 .051-.736-.077-1.635-.283s-4.257-.914-7.462-1.572c-8.089-1.662-8.199-1.72-7.199-3.818.564-1.183.732-.976-1.834-2.261l-2.067-1.035-3.13 6.325-3.13 6.324 2.182 1.098 2.182 1.098.599-.7c.329-.385.817-.773 1.083-.863.535-.18 6.519.776 7.153 1.143.616.356 8.491 8.048 8.24 8.048-.968 0-17.163-3.565-17.681-3.892-.5-.316-.619-.575-.475-1.036.537-1.722.544-1.71-1.451-2.606-1.045-.469-2.003-.894-2.13-.944-.235-.093-6.909 13.004-6.722 13.191.056.056 1.05.533 2.208 1.06l2.106.957.589-.874c1.063-1.578.962-1.584 15.389.941 7.33 1.284 13.591 2.398 13.914 2.476.511.125.798-.308 2.223-3.356l1.636-3.5-4.639-4.465c-2.552-2.455-4.448-4.47-4.213-4.477.234-.007 2.921.435 5.97.981s5.738.994 5.976.994c.423.001 3.405-5.556 3.405-6.344 0-.202-4.139-4.166-9.198-8.807-12.722-11.672-12.113-10.956-11.404-13.422.16-.558-2.868-2.414-3.939-2.414-.201 0-1.597 2.561-3.103 5.691zm157.9536 12.058c6.466 4.782 13.166 7.906 20.576 9.594 2.744.625 3.072.633 29.609.728l26.834.096-2.385 1.622c-6.793 4.621-12.382 12.439-14.476 20.247-.907 3.384-.965 8.302-.585 49.182.288 30.888.275 34.219-.143 36.674-1.98 11.65-9.416 22.545-19.59 28.703-1.251.757-9.951 5.241-19.332 9.964-17.784 8.954-20.988 10.795-26.35 15.141l-3.004 2.434-.959-.58c-.528-.318-1.983-1.444-3.234-2.501-4.894-4.137-11.449-8.022-30.419-18.029-10.884-5.741-18.994-10.197-20.185-11.09-8.088-6.068-13.828-15.266-16.104-25.81-.829-3.839-1.055-14.372-1.077-50.168-.016-25.863-.081-30.485-.451-32.267-1.814-8.728-6.36-15.683-14.786-22.625l-1.128-.93 25.017.044c27.785.049 27.584.06 34.6-1.864 10.296-2.822 20.367-9.422 25.833-16.928l1.227-1.686 4.179 4.228c2.298 2.325 5.148 4.945 6.333 5.821zm-55.952 13.168-33.248.073 1.015 1.065c3.876 4.066 6.486 8.708 7.871 14.001 1.806 6.897 1.699 4.512 2.018 45.06.364 46.16.199 44.366 4.928 53.756 4.868 9.667 10.379 14.407 24.935 21.446 17.295 8.363 25.947 12.805 28.571 14.669 1.407 1 3.774 2.708 5.26 3.797 1.485 1.089 3.297 2.305 4.027 2.703l1.327.725 2.227-1.678c4.199-3.163 21.405-12.195 38.671-20.3 12.624-5.925 21.435-16.527 24.413-29.375.713-3.072.771-11.823.32-47.733-.419-33.429-.391-35.174.641-39.52 1.511-6.363 5.201-13.147 8.864-16.296.811-.698 1.102-1.166 1.102-1.777v-.829l-44.848.07c-24.665.038-59.808.103-78.094.143zm118.414 3.127c-6.512 7.823-8.547 14.221-8.549 26.866l-.001 7.036h-28.236-28.237l-3.391-3.832c-4.211-4.76-3.636-4.759-8.42-.006l-3.863 3.838h-29.029-29.03l-.001-5.33c-.001-13.617-1.055-18.476-5.542-25.555-1.329-2.098-2.417-3.874-2.417-3.948s33.211-.135 73.801-.135h73.802zm-50.341 9.169c0 1.239.074 1.421.578 1.421.534 0-.876 2.51-1.431 2.546-.424.027-1.665-2.409-1.271-2.496.292-.064.418-.473.418-1.35v-1.259h-3.269-3.269v1.28c0 1.271.006 1.279.987 1.279.905 0 4.414 4.22 4.414 5.308 0 .889-3.625 5.475-4.335 5.485-.747.01-.782.073-.782 1.432v1.421h3.127 3.127v-1.4c0-.948-.125-1.431-.387-1.493-.287-.068-.186-.413.392-1.336l.779-1.244.742 1.091c.488.718.645 1.188.461 1.372-.155.155-.281.895-.281 1.646v1.364h3.27 3.269v-1.563-1.564h-1.092c-1.067 0-1.132-.061-2.805-2.662l-1.712-2.661 1.959-2.598c1.543-2.046 2.108-2.598 2.662-2.598.655 0 .704-.099.704-1.421v-1.422h-3.128-3.127zm-70.254-.949c-.29.078-1.021 1.57-1.968 4.017l-1.506 3.893-.877-1.846c-.482-1.015-1.302-2.774-1.822-3.907l-.945-2.061h-3.958-3.958v1.421 1.422h.995.995v5.117 5.117h-.71c-.674 0-.711.083-.711 1.599v1.6l.888-.178c.489-.098 1.832-.178 2.985-.178h2.097v-1.421c0-1.39-.019-1.422-.853-1.422h-.853v-4.264c0-2.346.042-4.265.093-4.265s1.289 2.559 2.75 5.686c3.352 7.172 3.356 7.175 5.225 2.346.712-1.838 1.741-4.492 2.288-5.899l.995-2.559.01 4.478.011 4.477h-.853c-.834 0-.853.032-.853 1.422v1.421h3.838 3.838v-1.563c0-1.548-.008-1.564-.853-1.564h-.853v-5.117-5.118h.995.995v-1.421-1.422l-3.482.033c-1.916.019-3.69.089-3.943.156zm13.678.077c-4.845 1.474-7.073 7.598-4.552 12.512 2.452 4.78 10.503 5.076 13.337.49 1.268-2.051 1.272-2.4.034-3.031-1.535-.783-1.8-.73-2.49.498-2.504 4.455-7.336 2.904-7.314-2.348.023-5.249 4.828-7.381 7.105-3.152.565 1.048.846 1.148 2.375.842l.889-.177v-2.666-2.665h-1.398c-.776 0-1.445.141-1.504.317-.068.206-.498.107-1.227-.284-1.166-.625-3.76-.791-5.255-.336zm34.686 1.115v1.462h1.208 1.208l-.083 5.259-.083 5.26h-1.125-1.125v1.377 1.378l4.051.185c2.228.102 5.17.186 6.539.186l2.487.001v-3.695-3.696h-1.564-1.563v2.132 2.132h-2.132-2.133v-5.117-5.117h1.534c1.69 0 1.878-.187 1.878-1.871v-.972h-2.801c-1.541 0-3.588-.082-4.549-.183l-1.747-.183zm28.541-.931c.095.247.172.814.172 1.26 0 .609.151.832.607.9.52.078.935 1.053 2.914 6.853l2.307 6.762 1.278-.081 1.277-.081 2.388-6.752c2.202-6.229 2.439-6.752 3.058-6.752.605 0 .67-.125.67-1.279v-1.28h-3.269-3.27v1.28c0 1.103.081 1.279.588 1.279.451 0 .547.128.414.547-.095.301-.531 1.611-.968 2.911l-.794 2.364-.899-2.698c-1.037-3.112-1.039-3.124-.473-3.124.316 0 .427-.332.427-1.279v-1.28h-3.3c-2.892 0-3.279.056-3.127.45zm15.524.972c0 1.39.019 1.421.853 1.421h.853v5.118 5.117h-.853c-.844 0-.853.016-.853 1.564v1.563h3.98 3.98v-1.563-1.564h-.995-.995v-5.259-5.26h.995c.99 0 .995-.007.995-1.279v-1.28h-3.98-3.98zm9.097-.178c0 1.155.062 1.256.853 1.415l.853.17.004 4.485c.002 2.466.081 4.772.175 5.124.155.577.071.64-.856.64h-1.029v1.564 1.563h3.98 3.981v-1.563-1.564h-.995-.995v-5.259-5.26h.995c.989 0 .995-.007.995-1.279v-1.28h-3.981-3.98zm-77.043.462v1.422h.995.995v5.117 5.117h-.711c-.672 0-.71.086-.71 1.564v1.563h2.985 2.985v-1.563c0-1.548-.009-1.564-.853-1.564h-.853l.004-4.335.004-4.336 1.418 2.985c.78 1.642 2.025 4.291 2.768 5.886 1.982 4.258 1.991 4.252 4.744-2.901 1.234-3.205 2.286-5.828 2.338-5.828.053 0 .096 1.919.096 4.265v4.264h-.853c-.834 0-.853.032-.853 1.422v1.421h3.838 3.838v-1.421c0-1.39-.019-1.422-.853-1.422h-.853v-5.259-5.26h.995c.99 0 .995-.006.995-1.279v-1.279h-3.92-3.919l-1.553 3.968-1.553 3.968-1.825-3.968-1.824-3.968h-3.932-3.933zm170.15 7.928c-.363 9.452.763 13.488 4.514 16.182 1.827 1.312 2.505 3.091 2.837 7.446.163 2.133-.226 1.78-.681-.619-.718-3.788-3.376-7.586-7.832-11.193-3.058-2.475-4.139-3.495-5.274-4.977-1.037-1.355-1.084-1.157-.648 2.717 1.216 10.79 4.093 14.744 12.809 17.604l2.314.759.164 1.48c.447 4.029.516 5.42.333 6.641-.237 1.584-.281 1.533-1.871-2.222-1.505-3.555-3.117-5.341-7.7-8.534-1.933-1.347-3.89-2.846-4.349-3.331-1.279-1.352-1.397-1.168-1.213 1.889.478 7.953 3.95 12.574 11.714 15.589 3.645 1.415 4.089 2.293 3.545 7.014-.402 3.489-.691 3.575-1.773.529-1.18-3.322-4.406-7.182-9.782-11.702-3.557-2.99-3.874-2.574-2.643 3.466 1.743 8.555 3.917 11.128 10.886 12.885l2.609.658.085 1.113c.103 1.349-.566 7.204-1.24 10.849-.645 3.489-1.03 2.89-1.255-1.95-.231-4.964-.684-5.764-6.794-12.006-2.561-2.616-4.767-4.688-4.904-4.603-.137.084-.248 2.435-.248 5.224 0 8.717 1.057 10.657 8.102 14.872 3.126 1.871 4.107 2.896 3.942 4.123-.249 1.864-1.23 6.406-1.763 8.168l-.516 1.706-.165-2.275c-.331-4.545-1.851-7.598-6.331-12.72-1.407-1.609-2.918-3.358-3.356-3.886-.981-1.179-1.147-1.02-1.749 1.676-1.881 8.416-.568 12.571 6.124 19.385 3.181 3.239 3.42 3.558 3.26 4.353-.551 2.742-.531 3.814.067 3.657.377-.098.637-.475.752-1.09.408-2.177 1.793-3.077 5.701-3.705 7.709-1.241 10.924-4.991 13.215-15.414.997-4.537.943-4.618-1.905-2.88-8.417 5.136-11.975 8.869-13.717 14.393-.76 2.408-.594.901.247-2.249.474-1.774 1.13-4.438 1.457-5.921.823-3.725 1.091-3.979 5.105-4.836 6.779-1.449 9.799-6.292 10.438-16.742l.182-2.978-1.36.975c-6.163 4.418-9.666 7.951-11.397 11.493-1.067 2.184-1.116 2.137-.693-.656.158-1.046.399-3.035.536-4.418.328-3.333.447-3.44 3.883-3.506 3.078-.06 3.82-.38 5.759-2.483 2.67-2.897 4.464-9.288 3.808-13.563l-.202-1.314-4.161 3.588c-4.696 4.051-6.208 5.711-7.348 8.068l-.791 1.636-.201-2.144c-.492-5.25.069-6.025 5.044-6.971 5.386-1.024 8.62-9.113 7.085-17.72l-.197-1.104-1.421 1.067c-4.119 3.093-8.115 8.813-9.689 13.867-.715 2.297-.93 1.773-1.148-2.795l-.19-3.984.818-.557c.45-.307 2.035-1.197 3.523-1.979 6.028-3.167 6.68-6.953 3.511-20.398-.457-1.937-.947-2.891-.947-1.841 0 .199-1.091 2.503-2.423 5.12-3.454 6.783-4.202 9.126-4.264 13.366-.07 4.718-.477 4.754-1.244.112l-.629-3.807 1.153-2.189c2.742-5.207.873-11.581-5.481-18.687-2.227-2.491-2.923-3.09-3.592-3.09-.125 0-.321 2.416-.435 5.369zm-301.8816 6.04c-5.329 8.024-6.671 13.332-4.16 16.452 1.496 1.859 1.564 2.049 1.56 4.394-.001 1.257-.179 3.054-.394 3.992l-.391 1.706-.775-3.127c-.985-3.973-2.521-7.886-5.384-13.717-2.536-5.167-3.143-5.743-3.147-2.985-.001.899-.135 2.454-.298 3.456-1.572 9.688-.26 13.443 5.863 16.785 1.241.677 2.607 1.477 3.037 1.779l.782.548-.02 4.601c-.027 6.258-.404 6.903-1.69 2.894-1.345-4.188-4.337-9.012-7.855-12.661-3.068-3.182-3.782-3.369-3.491-.913.107.899.128 2.919.047 4.489-.401 7.756 2.758 12.202 9.597 13.506 3.551.678 4.311 1.695 3.809 5.099l-.255 1.725-.995-1.343c-1.094-1.477-3.243-3.35-6.705-5.843-1.243-.895-3.066-2.411-4.051-3.369-2.233-2.172-2.198-2.226-1.655 2.496.998 8.697 4.762 12.909 11.633 13.02 2.822.046 2.752-.053 3.361 4.732.618 4.844.684 4.696-1.002 2.228-2.404-3.518-9.452-9.159-12.594-10.08-.84-.246-.262 2.608 1.967 9.712 1.59 5.067 6.594 9.426 12.433 10.832l2.019.486.724 2.416c.629 2.098 2.761 8.72 3.205 9.95.549 1.527-1.082-.867-2.54-3.727-2.554-5.011-4.236-6.645-10.064-9.782-1.408-.757-3.182-1.792-3.944-2.298-1.408-.937-2.376-1.008-2-.147.111.253 1 2.656 1.975 5.339 3.48 9.575 6.137 12.346 12.674 13.218 4.874.651 5.801 1.212 6.612 4.002.555 1.91 1.067 2.493 2.187 2.493 1.067 0 1.055-.121-.313-3.322l-1.145-2.68.641-.908c.353-.5 1.651-1.983 2.885-3.297 5.198-5.535 6.283-10.118 4.468-18.862-.899-4.326-1.051-4.313-4.09.355-.865 1.329-1.92 2.735-2.343 3.124-2.205 2.024-3.259 5.094-3.468 10.093l-.154 3.692-.679-1.814c-3.535-9.453-3.386-10.365 2.183-13.378 5.299-2.867 7.156-7.1 6.24-14.226-.171-1.329-.396-3.174-.501-4.099-.24-2.118-.618-2.244-1.758-.586-.498.723-2.095 2.704-3.55 4.401-4.141 4.832-5.743 7.52-6.424 10.785-.411 1.971-.567 1.64-1.446-3.065-.994-5.324-.799-5.947 2.051-6.558 5.685-1.219 9.404-6.937 10.093-15.517.217-2.708-.243-3.078-1.706-1.37-.527.616-2.493 2.429-4.369 4.029-4.519 3.854-6.87 6.843-6.87 8.736 0 .582-.561 1.338-.573.773-.003-.126-.131-1.418-.284-2.871-.417-3.967.104-4.808 4.269-6.891 5.542-2.771 9.381-9.25 9.381-15.829 0-2.899.405-2.983-4.431.917-5.775 4.659-8.438 7.982-9.107 11.367l-.224 1.137-.226-1.563c-.124-.86-.146-2.755-.049-4.21.209-3.129.313-3.243 3.545-3.917 5.647-1.178 8.973-6.433 9.944-15.71.534-5.1.764-5.102-4.402.033-2.481 2.466-4.376 4.321-4.212 4.122 1.533-1.858 1.939-8.134.924-14.291-.31-1.877-.566-3.948-.569-4.603-.009-1.93-.268-1.681-3.806 3.645zm159.2536 9.7c9.643 9.715 10.98 13.154 6.862 17.659-8.454 9.251-29.676 2.277-24.525-8.059.923-1.853 12.768-13.367 13.751-13.367.095 0 1.856 1.695 3.912 3.767zm-4.192 9.057c-1.849 5.46-2.479 5.794-5.456 2.893-1.833-1.785-2.118-1.669-1.684.683.368 1.99.095 2.417-1.098 1.712-3.503-2.069-2.087 2.196 1.603 4.829 4.885 3.487 11.665 2.666 15.137-1.832 2.337-3.027 2.295-4.066-.131-3.247l-1.628.549.199-2.382c.237-2.852.085-2.921-1.626-.743-2.588 3.294-2.95 3.161-3.353-1.228-.426-4.64-.743-4.839-1.963-1.234zm-153.4426-.529c-.422.665-1.124 2.04-1.56 3.057l-.792 1.847.026-1.279c.045-2.209.312-2.827 1.664-3.851.704-.532 1.313-.971 1.354-.975s-.27.537-.692 1.201zm137.0616.853c-.108.352-.215.664-.237.692-.31.399-49.083.391-49.236-.008-.53-1.381-1.623-1.323 24.908-1.323h24.762zm80.613.213v.853h-21.262c-20.7 0-21.291-.015-22.377-.568-.613-.313-1.632-.586-2.263-.606l-1.148-.038.995-.209c.547-.115 11.133-.226 23.525-.247l22.53-.037zm-62.985 3.662c-.096.684-.241 1.42-.323 1.634-.357.93 1.982.433 3.456-.735 1.513-1.199 1.809-1.269 1.293-.306-.904 1.69.228 2.767 1.966 1.868 1.08-.559 1.111-.202.092 1.034-3.597 4.361-10.922 4.735-14.745.753l-1.106-1.153 1.35.193 1.35.193v-.889c0-.489-.136-1.144-.302-1.455-.584-1.091-.093-1.151 1.121-.137 1.887 1.577 3.045.943 4.88-2.671l.649-1.28.246.853c.135.469.168 1.413.073 2.098zm19.969.233c6.434 5.811 13.021 10.404 20.248 14.12l4.641 2.385-1.809.959c-2.297 1.218-5.587 4.323-6.647 6.275-1.801 3.316-11.182 14.473-19.999 23.786l-8.713 9.202-.082-1.817c-.067-1.464 3.032-23.465 3.786-26.879.112-.508.457-.688 1.837-.96 2.157-.424 2.69-.818 2.723-2.013.015-.522.121-1.461.237-2.087.322-1.746-.164-2.212-1.957-1.877-1.697.317-1.853.245-1.853-.855 0-.927.791-1.424 2.895-1.819.577-.108 1.225-.407 1.441-.665.91-1.087 1.665-7.783.957-8.491-.085-.086-1.235.115-2.554.446-2.983.748-7.165 1.372-10.699 1.598l-2.701.172 2.432-.817c6.296-2.112 9.793-5.527 11.227-10.962l.514-1.948.968.157c.669.109 1.628.754 3.108 2.09zm-3.538 13.092c-.275 3.537-.609 3.833-5.224 4.629-7.984 1.378-17.207 1.381-25.092.008-3.693-.643-3.614-.546-4.261-5.241l-.152-1.102 1.196.157c.658.086 2.923.415 5.034.73 8.332 1.243 20.181.803 28.468-1.059.099-.023.113.823.031 1.878zm33.477 5.915c11.488 3.705 5.693 26.708-6.728 26.708-3.787 0-5.635-2.101-5.63-6.397.006-4.802.86-5.323 4.178-2.55 3.39 2.833 4.84 2.271 5.626-2.178.578-3.271.094-3.906-6.312-8.274l-2.469-1.683.812-1.422c1.206-2.111 3.448-3.866 5.974-4.676.877-.28 2.849-.076 4.549.472zm-39.12.648c.081.13.006.697-.166 1.259l-.314 1.021-2.162.234c-6.805.735-19.952-.019-20.169-1.157-.085-.445.014-.505.566-.345 2.819.818 13.948.436 19.005-.651 2.996-.645 3.061-.652 3.24-.361zm4.147 4.191c.009 1.174-1.153 1.833-3.724 2.11-1.311.141-3.727.467-5.369.724-3.883.609-12.185.419-17.449-.399-4.076-.633-4.017-.604-4.249-2.132l-.166-1.096 1.195.165c10.254 1.415 27.517 1.103 29.147-.527.231-.231.61.481.615 1.155zm-32.28 1.382c.566 1.945 1.126 2.539 2.195 2.326 1.21-.242 1.525.513 2.361 5.645.406 2.499 1.815 9.983 3.131 16.631 1.316 6.649 2.682 14.06 3.036 16.468l.643 4.379-1.268 1.102c-7.395 6.432-16.99 9.938-21.374 7.811-5.89-2.858-6.869-14.388-1.75-20.604l.543-.66 1.417 1.066c2.557 1.924 5.072 4.28 7.672 7.188 2.918 3.263 2.909 3.26 5.167 1.752 5.853-3.908 7.466-11.161 3.389-15.234-1.377-1.376-2.181-1.899-7.841-5.107-5.281-2.992-13.539-10.493-12.142-11.029 1.476-.566 11.426-9.685 13.484-12.356.894-1.161.807-1.202 1.337.622zm58.007 3.28.746.779-.857.355c-2.849 1.18-5.833 6.99-5.303 10.325l.171 1.076-.787-.409c-.433-.225-1.523-1.055-2.423-1.844-.899-.789-1.845-1.552-2.101-1.696-.395-.221.11-1.073 3.295-5.561l3.761-5.301 1.376.749c.757.412 1.712 1.099 2.122 1.527zm-84.713.403c1.601.76 2.971 2.119 5.471 5.432 2.949 3.907 7.713 8.309 13.775 12.728l3.326 2.424-2.331 1.126c-7.01 3.383-11.476 9.756-12.052 17.197-.214 2.756-.067 2.8-3.049-.912-3.287-4.09-9.523-10.155-14.695-14.292-4.695-3.756-5.278-4.609-5.558-8.133-.738-9.274 8.445-18.735 15.113-15.57zm53.589-.139c0 1.518-5.74 41.191-6.38 44.093-.224 1.016-.614 3.766-.867 6.112-.594 5.509-1.18 8.164-1.775 8.047-.795-.157-1.483-1.476-1.751-3.356-.145-1.017-2.002-13.14-4.127-26.942-2.125-13.801-3.863-25.526-3.863-26.056v-.962l3.34-.19c1.838-.105 5.516-.42 8.174-.701 6.726-.711 7.249-.715 7.249-.045zm35.044 2.738c1.24.843 1.429 2.269.556 4.203l-.49 1.086-1.992-1.401c-3.223-2.264-3.3-2.819-.566-4.074 1.421-.653 1.238-.666 2.492.186zm-61.832 20.466c6.059 1.799 7.176 9.289 2.018 13.521-2.44 2.002-2.414 2.003-4.177-.058-.853-.998-3.161-3.39-5.128-5.317l-3.576-3.503.56-1.035c1.566-2.897 6.674-4.686 10.303-3.608zm142.863 18.437c-1.596 3.027-2.939 5.665-2.985 5.862-.068.29 3.5 2.54 4.053 2.555.086.003.441-.58.788-1.294.412-.849.786-1.268 1.077-1.209.372.076 5.227 8.246 5.228 8.799 0 .098-2.113.272-4.696.386-5.571.245-5.845.156-4.942-1.615.319-.626.52-1.285.447-1.465-.23-.564-3.839-2.339-4.127-2.029-.328.352-7.753 14.42-7.652 14.497.419.318 4.234 2.181 4.297 2.098.046-.061.369-.523.717-1.028.845-1.224 1.306-1.319 10.725-2.212l7.989-.758 2.388 1.193c4.355 2.175 4.751 2.702 3.648 4.864-.565 1.108-.568 1.166-.071 1.532.754.555 3.761 1.964 3.887 1.822.093-.105 7.315-13.758 7.501-14.181.038-.086-.907-.668-2.1-1.293-1.428-.749-2.209-1.022-2.289-.8-1.048 2.923-1.962 3.028-6.281.72l-3.044-1.627-1.647-3.126c-7.123-13.523-6.683-12.401-5.757-14.678.191-.467-2.974-2.526-3.872-2.519-.209.002-1.686 2.48-3.282 5.506zm-256.8576 4.969c-.892.582-1.701 1.137-1.797 1.233-.097.097.161.709.572 1.361 1.356 2.148 1.595 1.927-9.82 9.103-6.485 4.077-7.842 5.649-8.544 9.9-1.27 7.689 5.554 16.269 12.925 16.252 3.265-.008 4.684-.661 13.539-6.233 7.011-4.411 7.097-4.439 8.382-2.665.475.655.983 1.198 1.129 1.208.479.031 3.847-2.107 3.852-2.447.008-.555-7.095-11.614-7.408-11.532-.161.042-1.113.594-2.117 1.228l-1.824 1.152.866 1.535.866 1.534-.662.658c-.822.817-13.157 8.551-14.6 9.154-4.897 2.046-10.001-3.764-7.236-8.238.83-1.344 2.388-2.482 9.481-6.932 6.551-4.109 6.892-4.222 8.039-2.655.429.587.875 1.179.99 1.317.194.232 4.238-2.046 4.22-2.377-.026-.492-8.516-13.519-8.838-13.562-.216-.029-1.123.424-2.015 1.006zm239.0476 23.311c-.84.86-1.032 1.242-.896 1.785.164.653-11.461 14.15-12.045 13.985-.098-.027-.37-.111-.605-.185-.255-.082-.865.362-1.522 1.108l-1.097 1.245 2.908 5.338c1.6 2.936 2.958 5.392 3.019 5.459.127.14 3.128-1.26 3.865-1.804.46-.338.435-.525-.389-2.887-1.216-3.487-.675-7.939.965-7.939.485 0 15.984 13.834 16.428 14.662.426.796.344 1.035-.773 2.272l-1.046 1.158 1.685 1.53c2.197 1.996 1.537 2.371 7.521-4.277 6.234-6.926 5.777-5.972 3.719-7.762-2.008-1.747-1.95-1.737-2.956-.476-1.444 1.809-1.492 1.781-10.256-6.139-8.653-7.82-8.576-7.73-7.477-8.676 1.504-1.293 4.269-1.586 7.445-.788 1.006.253 1.992.394 2.191.314.376-.151 2.095-4.11 1.878-4.327-.17-.17-11.061-4.691-11.3-4.691-.106 0-.674.493-1.262 1.095zm-218.4496 8.275c-1.771 1.963-1.744 1.802-.497 2.978 1.694 1.599 1.729 1.543-6.244 10.033-8.434 8.981-7.942 8.661-10.198 6.631l-.806-.725-1.705 1.81c-.939.995-1.599 1.901-1.469 2.013.13.111 2.431 2.273 5.114 4.803l4.876 4.601 1.585-1.638c1.876-1.938 1.881-1.963.602-3.202-.547-.531-.995-1.242-.995-1.581 0-.518 5.463-6.637 11.374-12.741.737-.762.541.029-2.875 11.591-2.016 6.824-3.666 12.569-3.666 12.767 0 .327 1.198 1.559 4.004 4.121l1.018.929 9.3256-9.96c5.13-5.477 9.469-9.974 9.643-9.993.751-.08 1.222.13 2.036.91.476.456.992.83 1.147.83.375 0 3.246-2.922 3.246-3.304 0-.26-4.077-4.208-8.634-8.363l-1.385-1.262-1.522 1.703c-1.814 2.027-1.779 1.829-.542 3.066 1.669 1.669 1.829 1.392-5.0306 8.689-1.376 1.464-2.503 2.579-2.503 2.476 0-.102 1.206-4.242 2.6786-9.2 1.472-4.958 2.76-9.343 2.86-9.744.164-.657-.294-1.171-4.6836-5.259-5.762-5.366-4.932-4.999-6.754-2.979zm190.9386 19.644c-7.42 5.325-6.884 4.609-5.212 6.951 1.481 2.076 1.105 2.016 3.385.543 1.199-.774 1.632-.315 7.79 8.257 7.359 10.242 7.035 9.613 5.577 10.846-.621.525-1.224.957-1.341.959-.524.01.834 2.365 2.35 4.076.168.191 10.238-6.772 12.77-8.831l.693-.563-1.347-1.888c-.741-1.038-1.396-1.887-1.456-1.887-.059 0-.734.389-1.498.863-.787.49-1.583.79-1.836.692-.416-.159-11.949-15.965-12.708-17.415-.327-.625-.195-1.758.208-1.774.106-.004.632-.371 1.168-.815l.974-.808-1.384-1.885c-1.709-2.328-.683-2.666-8.133 2.679zm-161.798 4.156c-.371.598-.956 1.554-1.301 2.124l-.628 1.036 1.265.741c1.416.83 1.781 1.544 1.281 2.506-1.454 2.799-10.869 18.107-11.22 18.242-.244.094-1.073-.148-1.841-.537-.769-.389-1.46-.708-1.536-.708-.202 0-2.535 3.98-2.405 4.104.06.057 3.212 1.967 7.005 4.245l6.897 4.141.654-1.057c.359-.581.936-1.523 1.282-2.093l.628-1.037-1.294-.811c-2.12-1.329-2.212-1.063 3.886-11.21 6.078-10.113 6.058-10.09 7.98-8.964.696.408 1.345.742 1.441.742.365 0 2.549-4.019 2.304-4.239-.14-.125-3.006-1.868-6.367-3.872-3.362-2.005-6.393-3.824-6.735-4.043-.582-.372-.666-.327-1.296.69zm145.557 6.508c-1.151.599-1.35.827-1.35 1.55v.847h-1.788c-11.005 0-18.256 11.625-11.385 18.252 2.627 2.534 5.96 2.979 13.599 1.816 7.28-1.108 9.314-.91 10.099.984 1.186 2.864-2.907 5.837-7.966 5.788-3.759-.037-5.515-.711-9.535-3.66-.68-.499-4.297 2.082-4.001 2.854.302.787 7.148 10.333 7.418 10.344.153.007.953-.268 1.777-.609l1.498-.621.001-1.298.001-1.298 3.197-.021c11.543-.077 19.063-11.988 12.017-19.034-2.764-2.763-6.181-3.252-14.033-2.008-8.313 1.317-11.122.54-9.493-2.624 1.732-3.364 7.635-4.069 12.686-1.515l3.009 1.522 1.382-1.158c2.389-2 2.51-1.493-1.523-6.424-3.968-4.852-3.705-4.679-5.61-3.687zm-128.969 4.802c-1.003 2.681-1.026 2.956-.272 3.244 1.795.686 1.71.107 2.38 16.118.338 8.054.731 14.751.873 14.882.289.266 6.333 2.299 6.833 2.299.174 0 4.459-4.882 9.521-10.849 9.704-11.438 10.27-11.998 11.706-11.586 1.086.311 1.016.389 1.954-2.183.555-1.523.68-2.171.437-2.261-.9-.335-11.9-4.108-11.977-4.108-.094 0-1.583 4.107-1.583 4.366 0 .086.559.403 1.243.705 2.281 1.01 2.538.506-4.845 9.52l-5.78 7.058v-9.511c0-11.025-.012-10.988 3.157-9.732.518.206 2.202-3.992 1.769-4.408-.235-.226-14.205-5.106-14.617-5.106-.12 0-.479.699-.799 1.552zm93.362 8.582c-2.035.208-22.169 3.863-22.394 4.065-.196.177.478 4.492.744 4.758.061.061.655-.012 1.321-.161 1.433-.322 2.444.029 2.666.927.441 1.784 3.59 19.595 3.59 20.307 0 1.051-.513 1.486-1.986 1.683-1.518.204-1.68 1.278-.698 4.643.112.385 1.168.257 8.087-.979 9.003-1.608 8.211-1.156 7.621-4.356l-.337-1.832-1.609.187c-1.251.145-1.707.09-2.045-.248-.405-.406-2.063-8.097-1.802-8.358.064-.064.592-.223 1.175-.355l1.059-.239 6.506 6.063c4.336 4.042 6.668 6.027 6.994 5.953.269-.06 2.584-.49 5.145-.954 5.53-1.004 5.019-.628 4.545-3.341l-.388-2.218-1.749.096c-2.192.119-2.132.153-7.495-4.196l-4.411-3.577 1.411-.71c10.382-5.223 5.826-18.36-5.95-17.158zm-57.57 2.191c0 .368-.08 1.438-.178 2.377l-.179 1.708 1.449.139c2.721.262 2.633-.496 1.504 12.96-.91 10.843-.794 10.477-3.288 10.368l-1.524-.066-.202 2.286c-.111 1.257-.136 2.352-.054 2.434.132.132 26.47 2.371 27.949 2.376.541.001 5.796-10.763 5.796-11.874 0-.254-4.25-2.188-4.395-2-.037.048-.438.781-.892 1.628-2.393 4.466-6.318 6.289-12.311 5.716-3.622-.346-3.495-.131-3.101-5.234l.326-4.225 1.833.147c2.489.2 2.974.697 2.941 3.014-.028 1.967-.11 1.907 2.876 2.106l1.635.109.015-.876c.008-.482.247-3.627.532-6.988.601-7.09.806-6.361-1.821-6.493l-2.089-.106-.204 1.631c-.291 2.327-.792 2.74-3.198 2.635l-1.906-.084.05-1.848c.027-1.016.135-2.792.241-3.946l.191-2.098 2.744.2c6.391.464 8.886 1.882 10.604 6.027.608 1.467.703 1.559 1.451 1.409 2.068-.413 3.941-1.1 3.83-1.405-.067-.181-.742-2.634-1.501-5.452l-1.38-5.122-13.374-1.072c-15.741-1.261-14.37-1.224-14.37-.381zm58.444 4.419c2.938 1.334 2.715 5.09-.405 6.812-1.306.721-7.98 2.188-8.293 1.823-.303-.354-1.493-7.485-1.285-7.699.907-.932 8.437-1.638 9.983-.936z" fill="#008752" fill-rule="evenodd"/></svg>